HIERARCHY
ROOT hip
{
	OFFSET 0.000000 0.000000 0.000000 
	CHANNELS 6 Xposition Yposition Zposition Xrotation Zrotation Yrotation
	JOINT abdomen
	{
		OFFSET 0.000000 3.402643 0.000000 
		CHANNELS 3 Xrotation Zrotation Yrotation
		JOINT chest
		{
			OFFSET 0.000000 8.438565 -0.680529 
			CHANNELS 3 Xrotation Zrotation Yrotation
			JOINT neck
			{
				OFFSET 0.000000 10.207942 -0.272212 
				CHANNELS 3 Xrotation Zrotation Yrotation
				JOINT head
				{
					OFFSET 0.000000 3.130431 0.000000 
					CHANNELS 3 Xrotation Zrotation Yrotation
					End Site
					{
						OFFSET 0.000000 3.130435 0.000000 
					}
				}
			}
			JOINT lCollar
			{
				OFFSET 3.470700 6.669187 -0.816635 
				CHANNELS 3 Yrotation Zrotation Xrotation
				JOINT lShldr
				{
					OFFSET 3.198488 0.000000 0.000000 
					CHANNELS 3 Zrotation Yrotation Xrotation
					JOINT lForeArm
					{
						OFFSET 10.139888 0.000000 0.000000 
						CHANNELS 3 Yrotation Zrotation Xrotation
						JOINT lHand
						{
							OFFSET 8.370511 0.000000 0.000000 
							CHANNELS 3 Zrotation Yrotation Xrotation
							End Site
							{
								OFFSET 4.083176 0.000000 0.000000 
							}
						}
					}
				}
			}
			JOINT rCollar
			{
				OFFSET -3.470700 6.669187 -0.816635 
				CHANNELS 3 Yrotation Zrotation Xrotation
				JOINT rShldr
				{
					OFFSET -3.198488 0.000000 0.000000 
					CHANNELS 3 Zrotation Yrotation Xrotation
					JOINT rForeArm
					{
						OFFSET -10.139888 0.000000 0.000000 
						CHANNELS 3 Yrotation Zrotation Xrotation
						JOINT rHand
						{
							OFFSET -8.370511 0.000000 0.000000 
							CHANNELS 3 Zrotation Yrotation Xrotation
							End Site
							{
								OFFSET -4.083176 0.000000 0.000000 
							}
						}
					}
				}
			}
		}
	}
	JOINT lThigh
	{
		OFFSET 5.308129 -1.633274 1.361059 
		CHANNELS 3 Xrotation Zrotation Yrotation
		JOINT lShin
		{
			OFFSET -2.041588 -20.007561 0.000000 
			CHANNELS 3 Xrotation Zrotation Yrotation
			JOINT lFoot
			{
				OFFSET 0.000000 -19.190928 -1.224953 
				CHANNELS 3 Xrotation Yrotation Zrotation
				End Site
				{
					OFFSET 0.000000 -2.449906 4.627600 
				}
			}
		}
	}
	JOINT rThigh
	{
		OFFSET -5.308129 -1.633274 1.361059 
		CHANNELS 3 Xrotation Zrotation Yrotation
		JOINT rShin
		{
			OFFSET 2.041588 -20.007561 0.000000 
			CHANNELS 3 Xrotation Zrotation Yrotation
			JOINT rFoot
			{
				OFFSET 0.000000 -19.190928 -1.224953 
				CHANNELS 3 Xrotation Yrotation Zrotation
				End Site
				{
					OFFSET 0.000000 -2.449906 4.627600 
				}
			}
		}
	}
}
MOTION
Frames: 15
Frame Time: 0.016667
-0.178898 41.808987 -1.143784 0.303534 -4.160100 -1.575400 -15.402700 -1.305170 2.336830 27.210800 -4.782170 0.662971 21.397499 14.684600 -0.762996 -8.603520 0.000000 0.000000 2.000000 -2.000000 0.000000 -77.625702 -7.806180 -169.093994 22.812799 -0.340870 0.053068 5.524700 0.709494 -157.494003 -2.000000 2.000000 0.000000 -94.394096 -175.516998 0.369413 -40.215199 0.319249 0.088281 5.201990 4.238900 -153.548004 -9.213055 1.212971 9.181148 25.995329 2.913233 1.952464 -15.651776 14.497058 4.313491 -12.528290 6.820321 -3.793018 30.045036 -2.410732 -2.394641 -11.815514 -11.926888 -2.956449 
-0.192192 41.810154 -1.143672 0.362269 -4.130780 -1.413450 -15.334200 -1.150860 2.221420 27.364700 -4.480040 0.646698 20.787300 15.024200 -0.122885 -8.603520 0.000000 0.000000 2.000000 -2.000000 0.000000 -77.997002 -8.070190 -169.240005 22.656500 -0.341014 0.052724 5.529060 0.690599 -157.328003 -2.000000 2.000000 0.000000 -94.716400 -175.789993 0.418938 -40.137100 0.319369 0.088139 5.196210 4.241790 -153.626007 -9.316160 1.190638 9.187400 25.908546 2.901438 1.961338 -15.349025 14.700853 4.313558 -12.586701 6.813942 -3.800312 30.035456 -2.407840 -2.394080 -11.824979 -12.097626 -3.011649 
-0.205966 41.812759 -1.131573 0.372047 -4.101480 -1.355370 -15.304800 -1.067200 2.167300 27.441500 -4.314490 0.631169 20.735201 15.119400 0.137826 -8.603520 0.000000 0.000000 2.000000 -2.000000 0.000000 -78.211899 -8.236390 -169.317993 22.578400 -0.341086 0.052552 5.526150 0.681238 -157.259995 -2.000000 2.000000 0.000000 -94.882500 -175.955994 0.448658 -40.098099 0.319429 0.088068 5.193310 4.243230 -153.666000 -9.333921 1.155167 9.169298 25.880606 2.890537 1.969082 -15.265591 14.767004 4.305402 -12.590559 6.812191 -3.714150 30.055929 -2.400749 -2.401669 -11.773235 -12.320971 -3.054006 
-0.222100 41.814701 -1.114890 0.372033 -4.072180 -1.316110 -15.294900 -1.008200 2.130690 27.508900 -4.187840 0.632322 20.754700 15.154500 0.303549 -8.603520 0.000000 0.000000 2.000000 -2.000000 0.000000 -78.368202 -8.373160 -169.337006 22.558800 -0.341104 0.052509 5.526490 0.681093 -157.229996 -2.000000 2.000000 0.000000 -94.999702 -176.082993 0.468513 -40.068802 0.319474 0.088014 5.194060 4.253780 -153.714996 -9.325645 1.137850 9.188632 25.841143 2.888382 1.959445 -15.194676 14.829949 4.305131 -12.572304 6.833354 -3.605886 30.056080 -2.398667 -2.401186 -11.717008 -12.545517 -3.095143 
-0.237869 41.816780 -1.096771 0.372024 -4.052650 -1.286680 -15.314600 -1.011470 2.122110 27.499100 -4.187930 0.623270 20.892500 15.123100 0.304060 -8.603520 0.000000 0.000000 2.000000 -2.000000 0.000000 -78.387802 -8.460840 -169.248993 22.627199 -0.341041 0.052660 5.529530 0.690404 -157.289001 -2.000000 2.000000 0.000000 -94.989899 -176.121994 0.458847 -40.078499 0.319459 0.088032 5.181390 4.255220 -153.753998 -9.268540 1.121597 9.195105 25.820875 2.898224 1.971596 -15.138843 14.877876 4.302560 -12.548249 6.866163 -3.487245 30.035501 -2.412621 -2.404990 -11.716578 -12.740415 -3.139629 
-0.253762 41.817558 -1.078920 0.362225 -4.033120 -1.256570 -15.363800 -1.061600 2.127290 27.441099 -4.275700 0.617042 20.884300 15.141600 0.308265 -8.603520 0.000000 0.000000 2.000000 -2.000000 0.000000 -78.329102 -8.499720 -169.171005 22.773701 -0.340906 0.052982 5.532080 0.699919 -157.386002 -2.000000 2.000000 0.000000 -94.902000 -176.121994 0.478379 -40.098099 0.319429 0.088068 5.179210 4.256300 -153.783005 -9.267641 1.122008 9.204905 25.811691 2.888256 1.959837 -15.037568 14.946045 4.289576 -12.523626 6.898466 -3.389112 30.064987 -2.411028 -2.404081 -11.728065 -12.904117 -3.191075 
-0.265847 41.816128 -1.063148 0.342645 -4.033130 -1.245430 -15.403500 -1.118640 2.113970 27.373600 -4.392680 0.597757 20.719900 15.210800 0.314155 -8.603520 0.000000 0.000000 2.000000 -2.000000 0.000000 -78.270500 -8.538640 -169.112000 22.959200 -0.340734 0.053390 5.524580 0.709543 -157.503998 -2.000000 2.000000 0.000000 -94.814102 -176.121994 0.517441 -40.117599 0.319399 0.088103 5.178480 4.256660 -153.792999 -9.322300 1.128569 9.256761 25.880079 2.891814 1.959638 -14.957269 15.006737 4.277857 -12.466996 6.924911 -3.334127 30.055370 -2.408645 -2.403647 -11.786460 -12.973611 -3.212265 
-0.273592 41.813019 -1.050352 0.332852 -4.023370 -1.244690 -15.443300 -1.179080 2.091580 27.306200 -4.509670 0.569713 20.483900 15.272000 0.320744 -8.603520 0.000000 0.000000 2.000000 -2.000000 0.000000 -78.241203 -8.577640 -169.082993 23.203400 -0.340506 0.053926 5.526450 0.719329 -157.649994 -2.000000 2.000000 0.000000 -94.755501 -176.112000 0.585775 -40.146900 0.319354 0.088157 5.177760 4.257020 -153.802002 -9.353356 1.116431 9.268510 25.928522 2.894414 1.949800 -14.891357 15.118583 4.294937 -12.483239 6.936184 -3.337182 30.103382 -2.416287 -2.394969 -11.904703 -12.971753 -3.228722 
-0.279352 41.809502 -1.039422 0.332840 -3.994070 -1.234750 -15.473400 -1.239600 2.068930 27.238501 -4.607300 0.553983 20.257299 15.312200 0.333597 -8.603520 0.000000 0.000000 2.000000 -2.000000 0.000000 -78.221703 -8.626310 -169.014008 23.476801 -0.340247 0.054525 5.521780 0.738336 -157.826004 -2.000000 2.000000 0.000000 -94.716499 -176.112000 0.654134 -40.176201 0.319309 0.088210 5.177760 4.257020 -153.802002 -9.354325 1.074154 9.220388 25.938620 2.895543 1.959641 -14.879743 15.218392 4.314978 -12.500087 6.905463 -3.318917 30.171482 -2.416954 -2.384151 -11.997882 -13.036204 -3.250885 
-0.286176 41.808086 -1.026728 0.323039 -3.964780 -1.233900 -15.513200 -1.305990 2.058400 27.170900 -4.714650 0.537364 20.089899 15.354400 0.329394 -8.603520 0.000000 0.000000 2.000000 -2.000000 0.000000 -78.182602 -8.665090 -168.897003 23.779600 -0.339958 0.055187 5.516860 0.757433 -158.011002 -2.000000 2.000000 0.000000 -94.648102 -176.072006 0.712628 -40.195702 0.319279 0.088246 5.178480 4.256660 -153.792999 -9.326074 1.032491 9.160830 25.919136 2.894067 1.959590 -14.924478 15.254987 4.343014 -12.550303 6.898648 -3.257092 30.308134 -2.428228 -2.394247 -12.029057 -13.186731 -3.287864 
-0.295238 41.808727 -1.008540 0.293661 -3.935500 -1.251250 -15.523300 -1.346970 2.060030 27.132401 -4.782930 0.532766 20.031900 15.374300 0.333469 -8.603520 0.000000 0.000000 2.000000 -2.000000 0.000000 -78.163002 -8.723340 -168.750000 24.082300 -0.339665 0.055847 5.518260 0.767385 -158.177002 -2.000000 2.000000 0.000000 -94.609100 -176.052994 0.761406 -40.205502 0.319264 0.088263 5.178480 4.256660 -153.792999 -9.244092 1.003999 9.127093 25.879641 2.896023 1.960569 -15.040531 15.253431 4.393865 -12.503838 6.910202 -3.134872 30.326965 -2.433249 -2.385493 -11.861783 -13.423336 -3.288539 
-0.309285 41.808987 -0.983286 0.244709 -3.906210 -1.277060 -15.533200 -1.396470 2.094320 27.103600 -4.851120 0.537201 20.085100 15.422200 0.340258 -8.603520 0.000000 0.000000 2.000000 -2.000000 0.000000 -78.114098 -8.791200 -168.535004 24.375299 -0.339378 0.056485 5.513540 0.786388 -158.332993 -2.000000 2.000000 0.000000 -94.511398 -176.014008 0.722245 -40.176201 0.319309 0.088210 5.191880 4.254860 -153.744003 -9.143899 1.000089 9.150550 25.907331 2.905573 1.942297 -15.221763 15.164003 4.405084 -12.433196 6.923934 -3.029547 30.376669 -2.433785 -2.404090 -11.718913 -13.611813 -3.301209 
-0.329024 41.806660 -0.953798 0.185972 -3.876930 -1.263210 -15.562800 -1.458620 2.122810 27.075199 -4.948430 0.528624 20.228201 15.473800 0.321294 -8.603520 0.000000 0.000000 2.000000 -2.000000 0.000000 -78.016403 -8.839480 -168.300995 24.638901 -0.339117 0.057057 5.514810 0.796378 -158.498993 -2.000000 2.000000 0.000000 -94.374702 -175.964996 0.692823 -40.088299 0.319444 0.088050 5.194060 4.253780 -153.714996 -9.043272 1.006461 9.154460 25.918087 2.900354 1.951229 -15.364229 15.066096 4.418766 -12.359478 6.913686 -3.057708 30.406147 -2.432292 -2.403157 -11.702276 -13.669080 -3.305567 
-0.351737 41.802368 -0.923882 0.146815 -3.847640 -1.201890 -15.583000 -1.512310 2.118320 27.046400 -5.006940 0.524549 20.459200 15.481900 0.319231 -8.603520 0.000000 0.000000 2.000000 -2.000000 0.000000 -77.947899 -8.917150 -168.104996 24.853800 -0.338902 0.057523 5.510050 0.815385 -158.645996 -2.000000 2.000000 0.000000 -94.277000 -175.945999 0.692773 -39.951599 0.319654 0.087800 5.191140 4.244320 -153.695007 -8.957036 1.003861 9.120156 25.994518 2.921036 1.954182 -15.554189 14.950397 4.416711 -12.296780 6.898717 -3.165810 30.464092 -2.438124 -2.393853 -11.706981 -13.693214 -3.306524 
-0.375158 41.797176 -0.895561 0.107662 -3.828120 -1.091810 -15.583500 -1.535430 2.084370 27.056000 -4.987440 0.496604 20.727600 15.460100 0.312871 -8.603520 0.000000 0.000000 2.000000 -2.000000 0.000000 -77.957703 -9.024300 -167.988007 25.019800 -0.338735 0.057882 5.512020 0.825089 -158.753006 -2.000000 2.000000 0.000000 -94.257500 -175.964996 0.712354 -39.785599 0.319908 0.087496 5.195510 4.253050 -153.694000 -8.850479 1.016340 9.055348 25.936323 2.910113 1.942873 -15.632942 14.881000 4.445554 -12.246948 6.878146 -3.313779 30.512985 -2.438978 -2.393142 -11.743563 -13.692884 -3.333704 
